<svg width="630" height="338" viewBox="0 0 630 338" fill="none" xmlns="http://www.w3.org/2000/svg">
<rect width="245" height="41" transform="translate(191.918 296.606) scale(1.0012)" fill="#42FF92"/>
<path d="M217.29 314.379C216.543 314.379 215.957 314.62 215.53 315.101C215.108 315.582 214.897 316.294 214.897 317.236C214.897 317.87 214.987 318.415 215.167 318.873C215.35 319.331 215.62 319.683 215.976 319.929C216.332 320.171 216.764 320.293 217.273 320.293C217.636 320.293 217.994 320.238 218.346 320.128C218.702 320.019 219.007 319.861 219.261 319.653V318.474H217.255V317.019H220.992V320.445C220.73 320.696 220.401 320.922 220.006 321.126C219.611 321.329 219.177 321.489 218.704 321.607C218.235 321.724 217.759 321.783 217.278 321.783C216.402 321.783 215.65 321.597 215.02 321.225C214.394 320.85 213.917 320.326 213.588 319.653C213.264 318.981 213.102 318.2 213.102 317.313C213.102 316.425 213.276 315.648 213.624 314.984C213.972 314.315 214.463 313.799 215.096 313.435C215.73 313.071 216.461 312.889 217.29 312.889C218.272 312.889 219.058 313.101 219.648 313.523C220.239 313.945 220.652 314.575 220.886 315.412L219.156 315.735C219.031 315.293 218.812 314.956 218.499 314.726C218.186 314.495 217.783 314.379 217.29 314.379ZM225.36 314.491V316.456H228.974V317.911H225.36V320.181H229.502V321.636H223.63V313.036H229.297V314.491H225.36ZM235.595 314.491V321.636H233.865V314.491H231.377V313.036H238.083V314.491H235.595ZM251.341 316.579H251.364C251.521 316.243 251.732 315.836 251.998 315.359L253.288 313.036H255.283L252.186 318.034V321.636H250.455V318.022L247.363 313.036H249.393L250.707 315.353C250.961 315.799 251.173 316.208 251.341 316.579ZM256.22 317.383C256.22 316.476 256.39 315.686 256.73 315.013C257.074 314.336 257.563 313.814 258.197 313.447C258.83 313.075 259.569 312.889 260.414 312.889C261.263 312.889 262.004 313.073 262.638 313.441C263.271 313.808 263.76 314.329 264.104 315.001C264.448 315.674 264.62 316.456 264.62 317.348C264.62 318.216 264.45 318.986 264.11 319.659C263.774 320.328 263.291 320.85 262.661 321.225C262.031 321.597 261.29 321.783 260.438 321.783C259.585 321.783 258.84 321.599 258.203 321.231C257.565 320.86 257.074 320.342 256.73 319.677C256.39 319.008 256.22 318.243 256.22 317.383ZM260.414 314.379C259.921 314.379 259.493 314.506 259.129 314.761C258.77 315.011 258.494 315.359 258.302 315.805C258.111 316.251 258.015 316.761 258.015 317.336C258.015 317.911 258.109 318.421 258.296 318.867C258.484 319.313 258.76 319.663 259.124 319.917C259.487 320.168 259.921 320.293 260.426 320.293C260.923 320.293 261.351 320.168 261.711 319.917C262.074 319.667 262.35 319.317 262.538 318.867C262.729 318.417 262.825 317.899 262.825 317.313C262.825 316.749 262.729 316.247 262.538 315.805C262.35 315.359 262.074 315.011 261.711 314.761C261.351 314.506 260.919 314.379 260.414 314.379ZM270.473 320.293C270.915 320.293 271.253 320.22 271.488 320.076C271.727 319.931 271.893 319.706 271.987 319.401C272.081 319.092 272.127 318.67 272.127 318.134V313.036H273.858V318.093C273.858 318.969 273.752 319.675 273.541 320.211C273.33 320.746 272.982 321.143 272.497 321.401C272.012 321.656 271.351 321.783 270.514 321.783C269.634 321.783 268.936 321.648 268.42 321.378C267.908 321.108 267.542 320.707 267.323 320.175C267.104 319.64 266.994 318.949 266.994 318.105V313.036H268.725V318.157C268.725 318.67 268.784 319.082 268.901 319.395C269.022 319.704 269.21 319.931 269.464 320.076C269.718 320.22 270.055 320.293 270.473 320.293ZM283.201 315.447C283.201 316.053 283.047 316.552 282.738 316.943C282.433 317.334 281.962 317.622 281.324 317.805V317.829C281.473 317.884 281.608 317.962 281.729 318.063C281.85 318.165 281.977 318.316 282.11 318.515C282.243 318.711 282.394 318.981 282.562 319.325L283.694 321.636H281.793L280.972 319.917C280.683 319.311 280.44 318.887 280.245 318.644C280.116 318.484 279.987 318.363 279.857 318.281C279.732 318.195 279.572 318.134 279.376 318.099C279.185 318.063 278.923 318.046 278.59 318.046H278.35V321.636H276.619V313.036H280.186C281.148 313.036 281.891 313.243 282.415 313.658C282.939 314.072 283.201 314.669 283.201 315.447ZM281.412 315.553C281.412 315.177 281.299 314.905 281.072 314.737C280.849 314.569 280.501 314.485 280.028 314.485H278.35V316.673H279.822C280.346 316.673 280.741 316.589 281.007 316.421C281.277 316.253 281.412 315.963 281.412 315.553ZM291.434 314.491V316.62H295.042V318.069H291.434V321.636H289.709V313.036H295.488V314.491H291.434ZM297.891 321.636V313.036H299.621V321.636H297.891ZM309.017 315.447C309.017 316.053 308.863 316.552 308.554 316.943C308.249 317.334 307.778 317.622 307.14 317.805V317.829C307.289 317.884 307.424 317.962 307.545 318.063C307.666 318.165 307.793 318.316 307.926 318.515C308.059 318.711 308.21 318.981 308.378 319.325L309.51 321.636H307.61L306.788 319.917C306.499 319.311 306.256 318.887 306.061 318.644C305.932 318.484 305.803 318.363 305.674 318.281C305.548 318.195 305.388 318.134 305.193 318.099C305.001 318.063 304.739 318.046 304.406 318.046H304.166V321.636H302.435V313.036H306.002C306.964 313.036 307.707 313.243 308.231 313.658C308.755 314.072 309.017 314.669 309.017 315.447ZM307.228 315.553C307.228 315.177 307.115 314.905 306.888 314.737C306.665 314.569 306.317 314.485 305.844 314.485H304.166V316.673H305.638C306.162 316.673 306.557 316.589 306.823 316.421C307.093 316.253 307.228 315.963 307.228 315.553ZM314.178 314.321C313.81 314.321 313.501 314.395 313.251 314.544C313.005 314.692 312.881 314.901 312.881 315.171C312.881 315.351 312.938 315.506 313.052 315.635C313.165 315.76 313.359 315.875 313.632 315.981C313.906 316.087 314.295 316.198 314.8 316.315C315.559 316.491 316.149 316.704 316.571 316.955C316.998 317.201 317.295 317.498 317.463 317.846C317.635 318.191 317.721 318.619 317.721 319.131C317.721 319.726 317.565 320.222 317.252 320.621C316.943 321.016 316.534 321.31 316.026 321.501C315.517 321.689 314.96 321.783 314.354 321.783C313.38 321.783 312.592 321.534 311.99 321.038C311.388 320.541 311.02 319.827 310.887 318.897L312.618 318.685C312.719 319.249 312.911 319.663 313.192 319.929C313.478 320.195 313.881 320.328 314.401 320.328C314.714 320.328 314.989 320.285 315.228 320.199C315.471 320.109 315.658 319.984 315.791 319.823C315.924 319.663 315.991 319.473 315.991 319.254C315.991 319.004 315.942 318.809 315.844 318.668C315.75 318.527 315.562 318.4 315.281 318.286C315.003 318.169 314.567 318.04 313.973 317.899C313.273 317.731 312.719 317.524 312.312 317.277C311.906 317.031 311.616 316.747 311.444 316.427C311.276 316.106 311.192 315.731 311.192 315.3C311.192 314.831 311.311 314.415 311.55 314.051C311.792 313.687 312.144 313.404 312.606 313.2C313.067 312.993 313.619 312.889 314.26 312.889C315.183 312.889 315.916 313.102 316.46 313.529C317.008 313.951 317.348 314.567 317.481 315.377L315.75 315.57C315.695 315.124 315.541 314.806 315.287 314.614C315.033 314.418 314.663 314.321 314.178 314.321ZM323.463 314.491V321.636H321.732V314.491H319.245V313.036H325.95V314.491H323.463ZM335.268 319.489H335.291C335.416 318.941 335.549 318.458 335.69 318.04L337.327 313.036H339.163L336.118 321.636H334.312L331.279 313.036H333.168L334.857 318.028C335.014 318.486 335.15 318.973 335.268 319.489ZM341.091 321.636V313.036H342.822V321.636H341.091ZM352.218 315.447C352.218 316.053 352.063 316.552 351.754 316.943C351.449 317.334 350.978 317.622 350.341 317.805V317.829C350.489 317.884 350.624 317.962 350.745 318.063C350.867 318.165 350.994 318.316 351.127 318.515C351.26 318.711 351.41 318.981 351.578 319.325L352.711 321.636H350.81L349.989 319.917C349.699 319.311 349.457 318.887 349.261 318.644C349.132 318.484 349.003 318.363 348.874 318.281C348.749 318.195 348.588 318.134 348.393 318.099C348.201 318.063 347.939 318.046 347.607 318.046H347.366V321.636H345.636V313.036H349.202C350.165 313.036 350.908 313.243 351.432 313.658C351.956 314.072 352.218 314.669 352.218 315.447ZM350.429 315.553C350.429 315.177 350.315 314.905 350.088 314.737C349.865 314.569 349.517 314.485 349.044 314.485H347.366V316.673H348.839C349.363 316.673 349.758 316.589 350.024 316.421C350.294 316.253 350.429 315.963 350.429 315.553ZM360.922 321.636L360.177 319.688H356.856L356.146 321.636H354.298L357.648 313.036H359.367L362.816 321.636H360.922ZM358.094 316.292L357.384 318.234H359.619L358.898 316.292C358.804 316.042 358.72 315.785 358.645 315.523C358.575 315.261 358.528 315.048 358.505 314.884H358.458C358.387 315.353 358.266 315.823 358.094 316.292ZM370.318 320.181V321.636H364.745V313.036H366.475V320.181H370.318ZM379.653 319.489H379.677C379.802 318.941 379.935 318.458 380.075 318.04L381.712 313.036H383.548L380.504 321.636H378.697L375.664 313.036H377.553L379.242 318.028C379.399 318.486 379.536 318.973 379.653 319.489ZM385.476 321.636V313.036H387.207V321.636H385.476ZM397.231 317.401C397.231 318.715 396.916 319.749 396.286 320.504C395.661 321.259 394.693 321.636 393.382 321.636H390.021V313.036H393.4C395.954 313.036 397.231 314.491 397.231 317.401ZM395.436 317.348C395.436 316.64 395.356 316.079 395.195 315.664C395.035 315.25 394.786 314.95 394.45 314.767C394.118 314.583 393.674 314.491 393.118 314.491H391.752V320.181H393.142C393.717 320.181 394.169 320.093 394.497 319.917C394.829 319.737 395.068 319.444 395.213 319.037C395.361 318.627 395.436 318.063 395.436 317.348ZM401.388 314.491V316.456H405.002V317.911H401.388V320.181H405.53V321.636H399.658V313.036H405.325V314.491H401.388ZM407.628 317.383C407.628 316.476 407.798 315.686 408.138 315.013C408.483 314.336 408.971 313.814 409.605 313.447C410.239 313.075 410.978 312.889 411.823 312.889C412.671 312.889 413.412 313.073 414.046 313.441C414.679 313.808 415.168 314.329 415.513 315.001C415.857 315.674 416.029 316.456 416.029 317.348C416.029 318.216 415.859 318.986 415.518 319.659C415.182 320.328 414.699 320.85 414.069 321.225C413.44 321.597 412.699 321.783 411.846 321.783C410.993 321.783 410.248 321.599 409.611 321.231C408.973 320.86 408.483 320.342 408.138 319.677C407.798 319.008 407.628 318.243 407.628 317.383ZM411.823 314.379C411.33 314.379 410.902 314.506 410.538 314.761C410.178 315.011 409.902 315.359 409.711 315.805C409.519 316.251 409.423 316.761 409.423 317.336C409.423 317.911 409.517 318.421 409.705 318.867C409.892 319.313 410.168 319.663 410.532 319.917C410.896 320.168 411.33 320.293 411.834 320.293C412.331 320.293 412.759 320.168 413.119 319.917C413.483 319.667 413.758 319.317 413.946 318.867C414.138 318.417 414.234 317.899 414.234 317.313C414.234 316.749 414.138 316.247 413.946 315.805C413.758 315.359 413.483 315.011 413.119 314.761C412.759 314.506 412.327 314.379 411.823 314.379Z" fill="black"/>
<path d="M76.3847 133.41L76.625 132.209H83.7135C85.5557 132.209 87.1576 132.008 88.5192 131.608C89.961 131.208 91.1624 130.447 92.1236 129.325C93.0847 128.124 93.7655 126.482 94.166 124.399L104.138 76.9424C104.538 75.0201 105.019 72.8575 105.58 70.4546C106.22 68.0517 106.821 65.6488 107.382 63.2459C108.023 60.7629 108.583 58.6004 109.064 56.7581H108.824C106.341 60.3625 104.058 63.2459 101.975 65.4085C99.8929 67.5711 97.9305 69.133 96.0883 70.0942C94.2461 71.0553 92.444 71.5359 90.6818 71.5359C88.6794 71.5359 87.1977 70.775 86.2365 69.2531C85.2753 67.6512 84.7948 65.4486 84.7948 62.6452C88.8797 62.6452 92.2838 62.3649 95.007 61.8042C97.8104 61.2435 100.373 60.3625 102.696 59.161C105.019 57.8795 107.462 56.2776 110.025 54.3553L119.396 47.1466H128.407L112.068 124.039C111.987 124.519 111.827 125.24 111.587 126.202C111.427 127.083 111.347 127.763 111.347 128.244C111.347 130.006 112.108 131.127 113.629 131.608C115.151 132.008 117.394 132.209 120.357 132.209H126.245L126.004 133.41H76.3847ZM158.154 133.41L158.515 132.209H160.076C162.639 132.209 164.962 131.808 167.045 131.007C169.127 130.126 170.489 128.124 171.13 125L185.427 56.8783C185.587 56.0773 185.747 55.3164 185.907 54.5955C186.068 53.7946 186.148 53.2339 186.148 52.9135C186.148 51.1514 185.347 50.0301 183.745 49.5495C182.143 49.0689 180.06 48.8286 177.497 48.8286H175.935L176.176 47.6272H213.541C223.392 47.6272 230.521 49.149 234.926 52.1927C239.412 55.2363 241.654 59.7217 241.654 65.6488C241.654 70.2944 240.493 74.2191 238.17 77.4229C235.927 80.5467 232.603 83.0297 228.198 84.8719C223.793 86.634 218.426 87.7153 212.099 88.1158V88.3561C217.545 88.5964 222.071 89.4774 225.675 90.9992C229.36 92.5211 232.083 94.6436 233.845 97.3669C235.687 100.01 236.608 103.214 236.608 106.978C236.608 111.143 235.847 114.868 234.326 118.152C232.884 121.436 230.721 124.239 227.838 126.562C224.954 128.805 221.35 130.527 217.025 131.728C212.7 132.849 207.694 133.41 202.007 133.41H158.154ZM196.841 132.209C200.365 132.209 203.368 131.488 205.851 130.046C208.414 128.524 210.497 126.442 212.099 123.799C213.701 121.155 214.902 118.112 215.703 114.668C216.504 111.143 216.905 107.419 216.905 103.494C216.905 98.1278 215.663 94.3633 213.18 92.2007C210.777 89.958 207.533 88.8367 203.448 88.8367H197.802L188.551 132.209H196.841ZM204.41 87.6352C207.533 87.6352 210.177 86.9544 212.339 85.5928C214.582 84.151 216.384 82.2688 217.746 79.946C219.187 77.6232 220.229 74.98 220.869 72.0165C221.51 69.0529 221.831 66.0092 221.831 62.8855C221.831 58.1598 220.909 54.6356 219.067 52.3128C217.305 49.99 214.342 48.8286 210.177 48.8286H206.092L198.042 87.6352H204.41ZM263.81 134.612C259.244 134.612 255.72 133.53 253.237 131.368C250.754 129.125 249.513 125.841 249.513 121.516C249.513 119.914 249.593 118.392 249.753 116.95C249.913 115.429 250.153 113.867 250.474 112.265C250.874 110.583 251.275 108.7 251.675 106.618L257.082 80.4266C257.322 79.3853 257.522 78.3841 257.682 77.4229C257.843 76.3817 257.923 75.4606 257.923 74.6596C257.923 72.8975 257.442 71.7361 256.481 71.1754C255.52 70.5347 253.878 70.2143 251.555 70.2143H249.392L249.633 69.0129H277.987L268.736 112.505C268.495 113.787 268.215 115.188 267.895 116.71C267.654 118.152 267.454 119.554 267.294 120.915C267.134 122.197 267.054 123.318 267.054 124.279C267.134 126.282 267.534 127.803 268.255 128.845C268.976 129.886 270.137 130.407 271.739 130.407C273.581 130.407 275.303 129.886 276.905 128.845C278.587 127.723 280.109 126.522 281.471 125.24L282.192 126.322C280.269 128.324 277.827 130.206 274.863 131.968C271.899 133.731 268.215 134.612 263.81 134.612ZM269.817 58.1999C267.494 58.1999 265.532 57.6392 263.93 56.5178C262.408 55.3164 261.647 53.4742 261.647 50.9912C261.647 48.5883 262.088 46.7061 262.969 45.3444C263.93 43.9027 265.131 42.9015 266.573 42.3408C268.095 41.7001 269.697 41.3797 271.379 41.3797C273.621 41.3797 275.584 41.9003 277.266 42.9416C278.948 43.9828 279.789 45.9051 279.789 48.7085C279.789 51.9123 278.748 54.3152 276.665 55.9171C274.663 57.439 272.38 58.1999 269.817 58.1999ZM303.027 134.612C298.302 134.612 294.777 133.49 292.455 131.248C290.212 129.005 289.091 125.801 289.091 121.636C289.091 120.194 289.171 118.672 289.331 117.071C289.571 115.469 289.852 113.747 290.172 111.904C290.572 110.062 290.973 108.1 291.373 106.017L302.547 53.7545C302.787 52.6332 302.987 51.5519 303.148 50.5106C303.308 49.3893 303.388 48.5483 303.388 47.9876C303.388 46.3857 302.907 45.2243 301.946 44.5034C300.985 43.7025 299.343 43.302 297.02 43.302H294.497L294.737 42.1005H323.572L308.314 112.505C308.073 113.787 307.793 115.188 307.473 116.71C307.232 118.152 307.032 119.554 306.872 120.915C306.712 122.197 306.632 123.318 306.632 124.279C306.712 126.282 307.072 127.803 307.713 128.845C308.434 129.886 309.675 130.407 311.437 130.407C313.039 130.407 314.681 129.886 316.363 128.845C318.126 127.723 319.687 126.522 321.049 125.24L321.77 126.322C320.488 127.603 318.926 128.885 317.084 130.166C315.322 131.448 313.28 132.529 310.957 133.41C308.634 134.211 305.991 134.612 303.027 134.612ZM342.497 134.612C337.771 134.612 334.247 133.49 331.924 131.248C329.681 129.005 328.56 125.801 328.56 121.636C328.56 120.194 328.64 118.672 328.8 117.071C329.04 115.469 329.321 113.747 329.641 111.904C330.042 110.062 330.442 108.1 330.843 106.017L342.016 53.7545C342.256 52.6332 342.457 51.5519 342.617 50.5106C342.777 49.3893 342.857 48.5483 342.857 47.9876C342.857 46.3857 342.377 45.2243 341.415 44.5034C340.454 43.7025 338.812 43.302 336.489 43.302H333.966L334.207 42.1005H363.041L347.783 112.505C347.543 113.787 347.262 115.188 346.942 116.71C346.702 118.152 346.501 119.554 346.341 120.915C346.181 122.197 346.101 123.318 346.101 124.279C346.181 126.282 346.542 127.803 347.182 128.845C347.903 129.886 349.145 130.407 350.907 130.407C352.509 130.407 354.151 129.886 355.833 128.845C357.595 127.723 359.157 126.522 360.518 125.24L361.239 126.322C359.958 127.603 358.396 128.885 356.554 130.166C354.791 131.448 352.749 132.529 350.426 133.41C348.103 134.211 345.46 134.612 342.497 134.612ZM382.687 134.612C378.121 134.612 374.597 133.53 372.114 131.368C369.631 129.125 368.39 125.841 368.39 121.516C368.39 119.914 368.47 118.392 368.63 116.95C368.79 115.429 369.03 113.867 369.351 112.265C369.751 110.583 370.152 108.7 370.552 106.618L375.959 80.4266C376.199 79.3853 376.399 78.3841 376.559 77.4229C376.72 76.3817 376.8 75.4606 376.8 74.6596C376.8 72.8975 376.319 71.7361 375.358 71.1754C374.397 70.5347 372.755 70.2143 370.432 70.2143H368.269L368.51 69.0129H396.864L387.613 112.505C387.372 113.787 387.092 115.188 386.772 116.71C386.531 118.152 386.331 119.554 386.171 120.915C386.011 122.197 385.931 123.318 385.931 124.279C386.011 126.282 386.411 127.803 387.132 128.845C387.853 129.886 389.014 130.407 390.616 130.407C392.459 130.407 394.181 129.886 395.783 128.845C397.465 127.723 398.986 126.522 400.348 125.24L401.069 126.322C399.147 128.324 396.704 130.206 393.74 131.968C390.776 133.731 387.092 134.612 382.687 134.612ZM388.694 58.1999C386.371 58.1999 384.409 57.6392 382.807 56.5178C381.285 55.3164 380.524 53.4742 380.524 50.9912C380.524 48.5883 380.965 46.7061 381.846 45.3444C382.807 43.9027 384.008 42.9015 385.45 42.3408C386.972 41.7001 388.574 41.3797 390.256 41.3797C392.499 41.3797 394.461 41.9003 396.143 42.9416C397.825 43.9828 398.666 45.9051 398.666 48.7085C398.666 51.9123 397.625 54.3152 395.542 55.9171C393.54 57.439 391.257 58.1999 388.694 58.1999ZM430.315 134.612C422.545 134.612 416.258 132.529 411.452 128.364C406.726 124.199 404.363 117.872 404.363 109.381C404.363 105.777 404.844 102.053 405.805 98.2079C406.846 94.3633 408.408 90.6388 410.491 87.0345C412.573 83.3501 415.176 80.0661 418.3 77.1827C421.424 74.2992 425.108 72.0165 429.353 70.3344C433.599 68.6524 438.404 67.8114 443.771 67.8114C448.416 67.8114 452.621 68.6925 456.386 70.4546C460.15 72.1366 463.154 74.8198 465.397 78.5042C467.719 82.1887 468.881 87.0345 468.881 93.0417C468.881 96.4858 468.36 100.13 467.319 103.975C466.358 107.819 464.876 111.544 462.874 115.148C460.871 118.753 458.348 122.037 455.305 125C452.261 127.884 448.657 130.206 444.492 131.968C440.327 133.731 435.601 134.612 430.315 134.612ZM430.555 133.41C433.358 133.41 435.841 132.369 438.004 130.286C440.166 128.204 442.049 125.441 443.651 121.996C445.253 118.552 446.534 114.748 447.495 110.583C448.536 106.338 449.297 102.053 449.778 97.7273C450.339 93.322 450.619 89.1971 450.619 85.3525C450.619 80.9472 450.379 77.5831 449.898 75.2604C449.498 72.9376 448.777 71.3356 447.736 70.4546C446.694 69.4934 445.212 69.0129 443.29 69.0129C440.567 69.0129 438.084 70.0942 435.841 72.2567C433.679 74.3392 431.756 77.1426 430.074 80.6668C428.472 84.111 427.111 87.9556 425.989 92.2007C424.868 96.4458 424.027 100.731 423.466 105.056C422.986 109.301 422.745 113.226 422.745 116.83C422.745 122.757 423.346 127.002 424.548 129.566C425.829 132.129 427.832 133.41 430.555 133.41ZM529.739 134.612C525.013 134.612 521.489 133.45 519.166 131.127C516.843 128.805 515.682 125.681 515.682 121.756C515.682 119.914 515.802 117.912 516.042 115.749C516.363 113.586 516.883 110.983 517.604 107.94L520.728 94.6036C520.968 93.5623 521.248 92.1606 521.569 90.3985C521.969 88.6364 522.29 86.7942 522.53 84.8719C522.85 82.9496 523.011 81.2676 523.011 79.8258C523.011 78.5443 522.89 77.3429 522.65 76.2215C522.41 75.0201 521.889 74.0589 521.088 73.338C520.367 72.5371 519.246 72.1366 517.724 72.1366C515.802 72.1366 513.96 72.8174 512.198 74.1791C510.516 75.5407 508.954 77.2628 507.512 79.3453C506.15 81.4278 504.949 83.5904 503.908 85.833C502.946 88.0757 502.266 90.1182 501.865 91.9604L492.254 133.41H474.232L485.405 80.4266C485.566 79.3853 485.726 78.304 485.886 77.1827C486.126 76.0613 486.246 75.2203 486.246 74.6596C486.246 73.0577 485.766 71.9364 484.805 71.2956C483.844 70.5747 482.202 70.2143 479.879 70.2143H477.716L477.836 69.0129H505.95L503.307 83.6704H503.667C505.67 79.8258 507.752 76.7421 509.915 74.4193C512.158 72.0966 514.641 70.4145 517.364 69.3733C520.167 68.332 523.291 67.8114 526.735 67.8114C530.339 67.8114 533.183 68.4121 535.265 69.6136C537.348 70.815 538.83 72.457 539.711 74.5395C540.592 76.622 541.032 78.9848 541.032 81.628C541.032 83.6304 540.792 85.9131 540.311 88.4762C539.831 91.0393 539.35 93.3621 538.87 95.4446L535.025 112.385C534.544 114.628 534.144 116.75 533.824 118.753C533.503 120.675 533.343 122.557 533.343 124.399C533.343 126.402 533.743 127.924 534.544 128.965C535.425 130.006 536.627 130.527 538.149 130.527C539.43 130.527 540.632 130.246 541.753 129.686C542.955 129.125 544.076 128.444 545.117 127.643C546.158 126.842 547.039 126.081 547.76 125.361L548.481 126.322C546.559 128.324 544.036 130.206 540.912 131.968C537.868 133.731 534.144 134.612 529.739 134.612Z" fill="#42FF92"/>
<path d="M504.453 156.638C504.32 155.603 504.036 154.953 503.602 154.686C503.168 154.385 502.534 154.235 501.7 154.235H501.099L501.199 153.735H517.769L517.669 154.235H516.017C514.949 154.235 514.098 154.352 513.464 154.586C512.83 154.786 512.513 155.32 512.513 156.188C512.513 156.454 512.513 156.755 512.513 157.089C512.546 157.422 512.58 157.706 512.613 157.94L514.615 176.161C514.716 176.762 514.799 177.446 514.866 178.214C514.933 178.948 514.999 179.699 515.066 180.467C515.166 181.234 515.233 181.952 515.266 182.619C515.333 183.253 515.383 183.804 515.416 184.271C515.717 183.704 516.051 183.07 516.418 182.369C516.785 181.635 517.169 180.867 517.569 180.066C518.003 179.265 518.42 178.481 518.821 177.713L528.632 158.59C528.966 157.89 529.183 157.306 529.283 156.838C529.417 156.371 529.483 156.004 529.483 155.737C529.483 155.136 529.216 154.736 528.682 154.536C528.182 154.335 527.414 154.235 526.38 154.235H523.827L523.927 153.735H536.392L536.241 154.235H534.389C533.688 154.235 533.071 154.319 532.537 154.485C532.036 154.619 531.569 154.919 531.135 155.387C530.701 155.854 530.218 156.588 529.684 157.589L513.264 189.477H508.909L504.453 156.638ZM537.851 189.978C535.949 189.978 534.48 189.528 533.446 188.626C532.411 187.692 531.894 186.324 531.894 184.522C531.894 183.854 531.927 183.22 531.994 182.619C532.061 181.985 532.161 181.334 532.294 180.667C532.461 179.966 532.628 179.182 532.795 178.314L535.047 167.401C535.148 166.967 535.231 166.55 535.298 166.149C535.364 165.716 535.398 165.332 535.398 164.998C535.398 164.264 535.198 163.78 534.797 163.546C534.397 163.279 533.712 163.146 532.745 163.146H531.844L531.944 162.645H543.758L539.903 180.767C539.803 181.301 539.686 181.885 539.553 182.519C539.453 183.12 539.369 183.704 539.303 184.271C539.236 184.805 539.202 185.272 539.202 185.673C539.236 186.507 539.403 187.141 539.703 187.575C540.003 188.009 540.487 188.226 541.155 188.226C541.922 188.226 542.64 188.009 543.307 187.575C544.008 187.108 544.642 186.607 545.21 186.073L545.51 186.524C544.709 187.358 543.691 188.143 542.456 188.877C541.222 189.611 539.686 189.978 537.851 189.978ZM540.354 158.14C539.386 158.14 538.568 157.906 537.901 157.439C537.267 156.938 536.95 156.171 536.95 155.136C536.95 154.135 537.133 153.351 537.5 152.783C537.901 152.183 538.401 151.766 539.002 151.532C539.636 151.265 540.304 151.131 541.005 151.131C541.939 151.131 542.757 151.348 543.458 151.782C544.158 152.216 544.509 153.017 544.509 154.185C544.509 155.52 544.075 156.521 543.207 157.189C542.373 157.823 541.422 158.14 540.354 158.14ZM556.494 189.978C554.091 189.978 552.039 189.611 550.337 188.877C548.635 188.109 547.333 186.958 546.432 185.423C545.564 183.887 545.131 181.952 545.131 179.616C545.131 178.281 545.314 176.829 545.681 175.26C546.048 173.692 546.632 172.14 547.433 170.605C548.234 169.036 549.286 167.618 550.587 166.35C551.889 165.082 553.474 164.064 555.343 163.296C557.212 162.528 559.414 162.145 561.951 162.145C564.42 162.145 566.339 162.645 567.708 163.646C569.076 164.614 569.76 166.083 569.76 168.052C569.76 169.787 569.109 171.339 567.808 172.707C566.506 174.042 564.738 175.11 562.501 175.911C560.265 176.679 557.712 177.063 554.842 177.063H552.99C552.957 177.296 552.923 177.613 552.89 178.014C552.857 178.414 552.823 178.815 552.79 179.215C552.79 179.582 552.79 179.883 552.79 180.116C552.79 182.286 552.973 184.071 553.34 185.473C553.741 186.841 554.292 187.842 554.992 188.476C555.727 189.11 556.611 189.427 557.646 189.427C559.615 189.427 561.183 188.743 562.351 187.375C563.553 186.007 564.471 184.255 565.105 182.119C565.438 182.219 565.705 182.419 565.906 182.719C566.106 183.02 566.206 183.487 566.206 184.121C566.206 184.955 565.856 185.823 565.155 186.724C564.454 187.625 563.386 188.393 561.951 189.027C560.549 189.661 558.73 189.978 556.494 189.978ZM553.941 176.562C555.143 176.562 556.261 176.312 557.295 175.811C558.363 175.31 559.298 174.626 560.099 173.759C560.9 172.858 561.517 171.823 561.951 170.655C562.418 169.453 562.652 168.152 562.652 166.75C562.652 165.248 562.435 164.214 562.001 163.646C561.6 163.079 560.983 162.795 560.149 162.795C559.314 162.795 558.53 163.146 557.796 163.847C557.095 164.514 556.444 165.482 555.843 166.75C555.243 167.985 554.709 169.437 554.242 171.105C553.774 172.774 553.391 174.593 553.09 176.562H553.941ZM589.154 189.978C589.154 188.443 589.137 186.858 589.104 185.222C589.104 183.587 589.087 181.968 589.054 180.367C589.021 178.765 588.971 177.213 588.904 175.711C588.871 174.209 588.82 172.807 588.754 171.506C588.687 170.171 588.604 168.986 588.503 167.952C588.003 169.253 587.469 170.555 586.901 171.856C586.368 173.158 585.8 174.443 585.199 175.711C584.632 176.979 584.048 178.231 583.447 179.465C582.88 180.7 582.296 181.885 581.695 183.02C581.128 184.154 580.544 185.256 579.943 186.324C579.376 187.358 578.825 188.343 578.291 189.277L572.734 189.778L572.284 166.099C572.284 165.265 572.184 164.648 571.984 164.247C571.783 163.813 571.5 163.53 571.133 163.396C570.799 163.229 570.382 163.146 569.881 163.146H569.23L569.38 162.645H579.242C579.276 164.514 579.309 166.316 579.342 168.052C579.376 169.754 579.392 171.389 579.392 172.958C579.426 174.526 579.443 176.045 579.443 177.513C579.476 178.948 579.493 180.367 579.493 181.768C579.493 183.137 579.476 184.488 579.443 185.823H579.593C580.16 184.755 580.794 183.537 581.495 182.169C582.196 180.767 582.913 179.282 583.648 177.713C584.382 176.111 585.116 174.476 585.85 172.807C586.584 171.139 587.269 169.487 587.903 167.852C588.57 166.183 589.171 164.598 589.705 163.096L595.312 162.695C595.412 163.663 595.495 164.881 595.562 166.35C595.629 167.818 595.695 169.42 595.762 171.155C595.829 172.891 595.879 174.693 595.912 176.562C595.946 178.398 595.962 180.2 595.962 181.968C595.996 183.704 596.012 185.306 596.012 186.774H596.163C598.098 184.572 599.75 182.536 601.119 180.667C602.487 178.765 603.521 176.929 604.222 175.16C604.956 173.391 605.324 171.623 605.324 169.854C605.324 168.519 605.023 167.518 604.423 166.85C603.855 166.149 602.771 165.782 601.169 165.749C601.169 164.548 601.452 163.646 602.02 163.046C602.62 162.445 603.388 162.145 604.322 162.145C605.49 162.145 606.358 162.512 606.926 163.246C607.526 163.98 607.827 165.031 607.827 166.4C607.827 168.135 607.459 169.971 606.725 171.906C606.024 173.809 605.04 175.761 603.772 177.763C602.537 179.766 601.119 181.752 599.517 183.721C597.948 185.69 596.296 187.575 594.561 189.377L589.154 189.978ZM615.883 189.978C614.081 189.978 612.462 189.761 611.027 189.327C609.592 188.893 608.458 188.259 607.623 187.425C606.822 186.591 606.422 185.606 606.422 184.471C606.422 183.437 606.639 182.619 607.073 182.019C607.54 181.384 608.174 180.934 608.975 180.667C609.809 180.367 610.744 180.216 611.778 180.216C611.745 180.55 611.711 180.867 611.678 181.168C611.678 181.468 611.678 181.752 611.678 182.019C611.678 183.687 611.878 185.089 612.279 186.224C612.713 187.325 613.313 188.143 614.081 188.677C614.882 189.21 615.833 189.477 616.934 189.477C618.636 189.477 619.888 188.977 620.689 187.976C621.523 186.974 621.94 185.756 621.94 184.321C621.94 183.32 621.757 182.486 621.39 181.818C621.023 181.117 620.422 180.5 619.588 179.966C618.787 179.399 617.702 178.831 616.334 178.264C614.899 177.663 613.664 177.029 612.629 176.362C611.628 175.661 610.844 174.843 610.276 173.909C609.742 172.941 609.475 171.773 609.475 170.405C609.475 168.769 609.893 167.334 610.727 166.099C611.561 164.865 612.813 163.897 614.481 163.196C616.184 162.495 618.286 162.145 620.789 162.145C623.125 162.145 624.961 162.378 626.296 162.846C627.631 163.279 628.582 163.847 629.149 164.548C629.716 165.248 630 166.016 630 166.85C630 168.185 629.466 169.153 628.398 169.754C627.33 170.355 625.912 170.655 624.143 170.655C624.176 170.221 624.193 169.821 624.193 169.453C624.227 169.053 624.243 168.686 624.243 168.352C624.243 166.483 623.943 165.065 623.342 164.097C622.775 163.129 621.757 162.645 620.288 162.645C618.887 162.645 617.785 163.112 616.984 164.047C616.217 164.948 615.833 166.083 615.833 167.451C615.833 168.319 616 169.07 616.334 169.704C616.701 170.338 617.285 170.922 618.086 171.456C618.92 171.956 620.005 172.507 621.34 173.108C622.908 173.775 624.176 174.459 625.144 175.16C626.145 175.861 626.88 176.645 627.347 177.513C627.814 178.381 628.048 179.449 628.048 180.717C628.048 182.386 627.631 183.937 626.796 185.373C625.962 186.774 624.644 187.892 622.842 188.727C621.073 189.561 618.753 189.978 615.883 189.978Z" fill="white"/>
<path d="M14.5673 36.8442C11.6638 36.8442 9.11074 36.3436 6.9081 35.3424C4.73883 34.3079 3.03678 32.7059 1.80197 30.5367C0.600526 28.3674 -0.000195395 25.5307 -0.000195395 22.0264C-0.000195395 20.6248 0.183358 18.9728 0.550466 17.0705C0.950947 15.1682 1.61841 13.2326 2.55287 11.2635C3.48732 9.26112 4.75551 7.40889 6.35744 5.70685C7.99273 4.00481 10.0118 2.6365 12.4147 1.60192C14.851 0.533973 17.7545 -1.19353e-06 21.1252 -1.19353e-06C23.7283 -1.19353e-06 26.0978 0.467226 28.2337 1.40168C30.3696 2.33614 32.055 3.85463 33.2898 5.95715C34.558 8.05967 35.1921 10.8464 35.1921 14.3172C35.1921 15.3518 35.0586 16.62 34.7916 18.1218C34.558 19.6236 34.1408 21.2255 33.5401 22.9275C32.9727 24.5962 32.1718 26.2649 31.1372 27.9335C30.136 29.5688 28.8678 31.0706 27.3326 32.4389C25.8308 33.7739 24.0287 34.8418 21.9261 35.6428C19.8236 36.4438 17.3707 36.8442 14.5673 36.8442ZM14.6174 36.3436C16.286 36.3436 17.7711 35.8597 19.0727 34.8919C20.4076 33.8907 21.5757 32.5558 22.5769 30.8871C23.5781 29.2184 24.4124 27.3328 25.0799 25.2303C25.7474 23.0944 26.248 20.8751 26.5817 18.5723C26.9155 16.2362 27.0823 13.9668 27.0823 11.7641C27.0823 8.76052 26.8654 6.45775 26.4315 4.85583C25.9977 3.22053 25.3469 2.08584 24.4792 1.45174C23.6115 0.817647 22.4935 0.500599 21.1252 0.500599C19.4899 0.500599 17.9881 0.95114 16.6198 1.85222C15.2848 2.7533 14.0834 4.02149 13.0154 5.65679C11.9809 7.25871 11.0965 9.11094 10.3622 11.2135C9.6614 13.316 9.12743 15.5854 8.76032 18.0216C8.39322 20.4579 8.20966 22.9609 8.20966 25.5307C8.20966 28.2005 8.45996 30.3364 8.96056 31.9383C9.49454 33.5069 10.2454 34.6416 11.2133 35.3424C12.1811 36.0099 13.3158 36.3436 14.6174 36.3436ZM37.5445 12.5651C37.4444 11.8642 37.2775 11.3303 37.0439 10.9632C36.8436 10.5627 36.5767 10.2957 36.2429 10.1622C35.9092 10.0287 35.4753 9.96196 34.9414 9.96196H34.4408L34.5409 9.46136H44.3527L46.8557 26.4317C47.0225 27.3996 47.156 28.334 47.2561 29.2351C47.3896 30.1028 47.4898 30.9371 47.5565 31.7381C47.6566 32.5057 47.7401 33.2232 47.8068 33.8907H47.957C49.7592 31.955 51.311 30.0861 52.6126 28.284C53.9475 26.4818 54.9654 24.713 55.6662 22.9776C56.4005 21.2422 56.7676 19.5401 56.7676 17.8715C56.7676 16.2695 56.3838 15.1181 55.6162 14.4173C54.882 13.6831 53.6305 13.316 51.8617 13.316C51.8617 12.1145 52.1454 11.1133 52.7127 10.3124C53.28 9.47804 54.2312 9.06088 55.5661 9.06088C56.6674 9.06088 57.5518 9.42798 58.2193 10.1622C58.9202 10.8964 59.2706 12.0645 59.2706 13.6664C59.2706 15.2683 59.0036 16.8869 58.4696 18.5222C57.969 20.1575 57.2682 21.7928 56.3671 23.4281C55.4994 25.03 54.5149 26.5986 53.4135 28.1338C52.3122 29.669 51.1608 31.1207 49.9594 32.489C48.758 33.8573 47.5899 35.1255 46.4552 36.2936L41.4492 36.7441L37.5445 12.5651ZM70.1438 36.7942C67.7409 36.7942 65.6884 36.4271 63.9864 35.6929C62.2843 34.9253 60.9828 33.7739 60.0817 32.2387C59.214 30.7035 58.7801 28.7679 58.7801 26.4317C58.7801 25.0968 58.9637 23.6451 59.3308 22.0765C59.6979 20.508 60.2819 18.9561 61.0829 17.4209C61.8839 15.8524 62.9351 14.434 64.2367 13.1658C65.5383 11.8976 67.1235 10.8797 68.9924 10.1121C70.8613 9.34455 73.064 8.96076 75.6003 8.96076C78.07 8.96076 79.9889 9.46136 81.3572 10.4626C82.7256 11.4304 83.4097 12.8988 83.4097 14.8678C83.4097 16.6033 82.7589 18.1551 81.4574 19.5234C80.1558 20.8584 78.387 21.9263 76.151 22.7273C73.915 23.4949 71.3619 23.8787 68.4918 23.8787H66.6396C66.6062 24.1123 66.5728 24.4293 66.5395 24.8298C66.5061 25.2303 66.4727 25.6308 66.4393 26.0313C66.4393 26.3984 66.4393 26.6987 66.4393 26.9323C66.4393 29.1016 66.6229 30.8871 66.99 32.2888C67.3905 33.6571 67.9411 34.6583 68.642 35.2924C69.3762 35.9265 70.2606 36.2435 71.2952 36.2435C73.2642 36.2435 74.8327 35.5594 76.0008 34.191C77.2023 32.8227 78.12 31.0706 78.7541 28.9347C79.0879 29.0349 79.3548 29.2351 79.5551 29.5355C79.7553 29.8358 79.8554 30.303 79.8554 30.9371C79.8554 31.7715 79.505 32.6392 78.8042 33.5403C78.1033 34.4413 77.0354 35.2089 75.6003 35.843C74.1987 36.4771 72.3798 36.7942 70.1438 36.7942ZM67.5907 23.3781C68.7922 23.3781 69.9102 23.1278 70.9447 22.6272C72.0127 22.1266 72.9471 21.4424 73.7481 20.5747C74.5491 19.6736 75.1665 18.639 75.6003 17.471C76.0676 16.2695 76.3012 14.968 76.3012 13.5663C76.3012 12.0645 76.0842 11.0299 75.6504 10.4626C75.2499 9.89521 74.6325 9.61154 73.7982 9.61154C72.9638 9.61154 72.1796 9.96196 71.4453 10.6628C70.7445 11.3303 70.0937 12.2981 69.493 13.5663C68.8923 14.8011 68.3583 16.2528 67.8911 17.9215C67.4238 19.5902 67.0401 21.409 66.7397 23.3781H67.5907ZM86.9346 14.2671C87.0348 13.7999 87.1182 13.3494 87.1849 12.9155C87.2517 12.4483 87.2851 12.0478 87.2851 11.7141C87.2851 11.08 87.0348 10.6294 86.5342 10.3624C86.0669 10.0955 85.4328 9.96196 84.6319 9.96196H83.6307L83.7308 9.46136H94.9443L93.6427 17.3208H93.7929C94.4603 15.3851 95.1779 13.7999 95.9455 12.5651C96.7464 11.3303 97.6809 10.4292 98.7488 9.86184C99.8168 9.26112 101.085 8.96076 102.553 8.96076C104.356 8.96076 105.69 9.34455 106.558 10.1121C107.426 10.8464 107.86 11.8809 107.86 13.2159C107.86 14.3172 107.626 15.235 107.159 15.9692C106.692 16.67 106.008 17.204 105.106 17.5711C104.239 17.9048 103.171 18.0717 101.903 18.0717C101.969 17.471 102.019 16.9203 102.053 16.4197C102.086 15.8857 102.103 15.4018 102.103 14.968C102.103 13.8666 102.003 13.0156 101.802 12.4149C101.602 11.8142 101.319 11.397 100.951 11.1634C100.584 10.8964 100.117 10.7629 99.5498 10.7629C98.9157 10.7629 98.2816 11.0299 97.6475 11.5639C97.0468 12.0645 96.4794 12.782 95.9455 13.7165C95.4115 14.6175 94.9109 15.6855 94.4437 16.9203C94.0098 18.1218 93.626 19.44 93.2923 20.8751L89.7881 36.2936H82.2791L86.9346 14.2671Z" fill="white"/>
</svg>
